<?xml version="1.0" encoding="UTF-8"?>
<svg width="372px" height="372px" viewBox="0 0 372 372" version="1.1" xmlns="http://www.w3.org/2000/svg" xmlns:xlink="http://www.w3.org/1999/xlink">
    <!-- Generator: Sketch 50.2 (55047) - http://www.bohemiancoding.com/sketch -->
    <title>contacts-372x372</title>
    <desc>Created with Sketch.</desc>
    <defs>
        <linearGradient x1="1.44424438%" y1="0%" x2="100%" y2="100%" id="linearGradient-1">
            <stop stop-color="#17EAD9" offset="0%"></stop>
            <stop stop-color="#6078EA" offset="100%"></stop>
        </linearGradient>
        <filter x="-6.5%" y="-6.4%" width="113.0%" height="121.3%" filterUnits="objectBoundingBox" id="filter-2">
            <feOffset dx="0" dy="4" in="SourceAlpha" result="shadowOffsetOuter1"></feOffset>
            <feGaussianBlur stdDeviation="2" in="shadowOffsetOuter1" result="shadowBlurOuter1"></feGaussianBlur>
            <feColorMatrix values="0 0 0 0 0.247058824   0 0 0 0 0.482352941   0 0 0 0 0.749019608  0 0 0 0.5 0" type="matrix" in="shadowBlurOuter1" result="shadowMatrixOuter1"></feColorMatrix>
            <feMerge>
                <feMergeNode in="shadowMatrixOuter1"></feMergeNode>
                <feMergeNode in="SourceGraphic"></feMergeNode>
            </feMerge>
        </filter>
        <filter x="-9.5%" y="-6.8%" width="118.9%" height="118.9%" filterUnits="objectBoundingBox" id="filter-3">
            <feOffset dx="0" dy="2" in="SourceAlpha" result="shadowOffsetOuter1"></feOffset>
            <feGaussianBlur stdDeviation="2" in="shadowOffsetOuter1" result="shadowBlurOuter1"></feGaussianBlur>
            <feColorMatrix values="0 0 0 0 0.247058824   0 0 0 0 0.482352941   0 0 0 0 0.749019608  0 0 0 0.5 0" type="matrix" in="shadowBlurOuter1" result="shadowMatrixOuter1"></feColorMatrix>
            <feMerge>
                <feMergeNode in="shadowMatrixOuter1"></feMergeNode>
                <feMergeNode in="SourceGraphic"></feMergeNode>
            </feMerge>
        </filter>
        <circle id="path-4" cx="37" cy="37" r="37"></circle>
        <polygon id="path-6" points="1.62619312 0.80680834 1.62619312 1.64218156 0.000243928968 1.64218156 0.000243928968 0.80680834 1.62619312 0.80680834"></polygon>
        <filter x="-9.5%" y="-6.8%" width="118.9%" height="118.9%" filterUnits="objectBoundingBox" id="filter-8">
            <feOffset dx="0" dy="2" in="SourceAlpha" result="shadowOffsetOuter1"></feOffset>
            <feGaussianBlur stdDeviation="2" in="shadowOffsetOuter1" result="shadowBlurOuter1"></feGaussianBlur>
            <feColorMatrix values="0 0 0 0 0.247058824   0 0 0 0 0.482352941   0 0 0 0 0.749019608  0 0 0 0.5 0" type="matrix" in="shadowBlurOuter1" result="shadowMatrixOuter1"></feColorMatrix>
            <feMerge>
                <feMergeNode in="shadowMatrixOuter1"></feMergeNode>
                <feMergeNode in="SourceGraphic"></feMergeNode>
            </feMerge>
        </filter>
        <circle id="path-9" cx="37" cy="37" r="37"></circle>
        <filter x="-9.5%" y="-6.8%" width="118.9%" height="118.9%" filterUnits="objectBoundingBox" id="filter-11">
            <feOffset dx="0" dy="2" in="SourceAlpha" result="shadowOffsetOuter1"></feOffset>
            <feGaussianBlur stdDeviation="2" in="shadowOffsetOuter1" result="shadowBlurOuter1"></feGaussianBlur>
            <feColorMatrix values="0 0 0 0 0.247058824   0 0 0 0 0.482352941   0 0 0 0 0.749019608  0 0 0 0.5 0" type="matrix" in="shadowBlurOuter1" result="shadowMatrixOuter1"></feColorMatrix>
            <feMerge>
                <feMergeNode in="shadowMatrixOuter1"></feMergeNode>
                <feMergeNode in="SourceGraphic"></feMergeNode>
            </feMerge>
        </filter>
        <circle id="path-12" cx="37" cy="37" r="37"></circle>
        <polygon id="path-14" points="17.5252 0 0.799866667 4.61190782e-15 0.799866667 9.08604783 17.5252 9.08604783 17.5252 1.38357235e-14"></polygon>
    </defs>
    <g id="contacts-372x372" stroke="none" stroke-width="1" fill="none" fill-rule="evenodd">
        <g id="Group-141" transform="translate(36.000000, 43.000000)">
            <circle id="Oval-3-Copy-3" fill="url(#linearGradient-1)" opacity="0.15" cx="148" cy="150" r="122"></circle>
            <circle id="Oval-29-Copy" fill="#94BEEF" opacity="0.301800272" cx="242" cy="276" r="18"></circle>
            <circle id="Oval-29-Copy-11" fill="#94BEEF" opacity="0.301800272" cx="10" cy="44" r="10"></circle>
            <circle id="Oval-29-Copy-12" fill="#94BEEF" opacity="0.301800272" cx="275" cy="7" r="7"></circle>
            <circle id="Oval-29-Copy-3" fill="#94BEEF" cx="146" cy="46" r="4"></circle>
            <circle id="Oval-29-Copy-2" fill="#94BEEF" cx="31" cy="99" r="3"></circle>
            <g id="Group-137" transform="translate(44.000000, 26.000000)">
                <path d="M83.6182735,199.771194 L2.43388707,199.771194 C1.08903656,199.771194 0,198.179348 0,196.225477 L0,106.741369 C0,104.787498 1.08903656,103.195652 2.43388707,103.195652 L83.6182735,103.195652 C84.963124,103.195652 86.0521606,104.787498 86.0521606,106.741369 L86.0521606,196.225477 C86.0521606,198.179348 84.963124,199.771194 83.6182735,199.771194 Z" id="Fill-1" fill="#94BEEF"></path>
                <path d="M213.537465,199.771194 L132.353079,199.771194 C131.008228,199.771194 129.919192,198.179348 129.919192,196.225477 L129.919192,106.741369 C129.919192,104.787498 131.008228,103.195652 132.353079,103.195652 L213.537465,103.195652 C214.882316,103.195652 215.971353,104.787498 215.971353,106.741369 L215.971353,196.225477 C215.971353,198.179348 214.882316,199.771194 213.537465,199.771194 Z" id="Fill-1-Copy-5" fill="#94BEEF"></path>
                <rect id="Rectangle-142-Copy-4" fill-opacity="0.665647645" fill="#CCE3F7" x="11.010101" y="129.543478" width="195.979798" height="13.173913"></rect>
                <rect id="Rectangle-142-Copy-5" fill-opacity="0.665647645" fill="#CCE3F7" x="11.010101" y="164.673913" width="195.979798" height="13.173913"></rect>
                <path d="M170.222698,200.990002 L45.5752814,200.990002 C43.5104491,200.990002 41.8383838,198.473298 41.8383838,195.384233 L41.8383838,53.9101166 C41.8383838,50.8210518 43.5104491,48.3043478 45.5752814,48.3043478 L170.222698,48.3043478 C172.287531,48.3043478 173.959596,50.8210518 173.959596,53.9101166 L173.959596,195.384233 C173.959596,198.473298 172.287531,200.990002 170.222698,200.990002 Z" id="Fill-1-Copy-9" fill="#A6C9F2"></path>
                <rect id="Rectangle-142" fill="#CCE3F7" x="59.4545455" y="68.0652174" width="94.6868687" height="13.173913"></rect>
                <rect id="Rectangle-142-Copy" fill="#CCE3F7" x="59.4545455" y="98.8043478" width="94.6868687" height="13.173913"></rect>
                <rect id="Rectangle-142-Copy-2" fill="#CCE3F7" x="50.6464646" y="131.73913" width="116.707071" height="17.5652174"></rect>
                <rect id="Rectangle-142-Copy-3" fill="#CCE3F7" x="50.6464646" y="166.869565" width="116.707071" height="17.5652174"></rect>
                <path d="M74.8606061,24.1521739 L143.139394,24.1521739 C147.9995,24.1521739 151.939394,28.0920681 151.939394,32.9521739 L151.939394,48.3043478 L66.0606061,48.3043478 L66.0606061,32.9521739 C66.0606061,28.0920681 70.0005003,24.1521739 74.8606061,24.1521739 Z" id="Rectangle-143" fill="#A6C9F2"></path>
                <path d="M114.505051,0 L114.505051,0 C115.721193,-2.23401694e-16 116.707071,0.985878026 116.707071,2.2020202 L116.707071,24.1521739 L112.30303,24.1521739 L112.30303,2.2020202 C112.30303,0.985878026 113.288908,2.23401694e-16 114.505051,0 Z" id="Rectangle-144" fill="#A6C9F2"></path>
                <path d="M103.494949,8.7826087 L103.494949,8.7826087 C104.711092,8.7826087 105.69697,9.76848672 105.69697,10.9846289 L105.69697,24.1521739 L101.292929,24.1521739 L101.292929,10.9846289 C101.292929,9.76848672 102.278807,8.7826087 103.494949,8.7826087 Z" id="Rectangle-144-Copy" fill="#A6C9F2"></path>
            </g>
            <g id="Group-77" filter="url(#filter-2)" transform="translate(76.000000, 136.000000)">
                <path d="M37.5228962,66.8124058 C41.5338962,66.8124058 41.76475,54.6800604 42.75,53.0468456 C43.7335,51.4153719 44.10625,49.8047922 44.5,47.823344 C44.59275,47.3532288 45.949,44.7397369 46.25,44.3410096 C47.8985,42.1575859 48,35.6351736 48,35.6351736 L46.25,33.8957475 C46.25,33.8957475 45.823,28.4267414 45.578,25.7436027 C44.5735,17.9135738 39.1485,13 30.5,13 C21.84975,13 16.4265,17.9135738 15.42025,25.7436027 C15.17875,28.4267414 14.75,33.8957475 14.75,33.8957475 L13,35.6351736 C13,35.6351736 13.09975,42.1575859 14.75,44.3410096 C15.051,44.7397369 16.4055,47.3532288 16.5,47.823344 C16.892,49.8047922 17.2665,51.4153719 18.25,53.0468456 C19.23525,54.6800604 20.8554,68 24.8664,68 L37.5228962,66.8124058 Z" id="Fill-5" fill="#FFFFFF"></path>
                <path d="M30.5,61 C34.511,61 41.76475,55.5564444 42.75,53.8888889 C43.7335,52.2231111 44.10625,50.5786667 44.5,48.5555556 C44.59275,48.0755556 45.949,45.4071111 46.25,45 C47.8985,42.7706667 48,36.1111111 48,36.1111111 L46.25,34.3351111 C46.25,34.3351111 45.823,28.7511111 45.578,26.0115556 C44.5735,18.0168889 39.1485,13 30.5,13 C21.84975,13 16.4265,18.0168889 15.42025,26.0115556 C15.17875,28.7511111 14.75,34.3351111 14.75,34.3351111 L13,36.1111111 C13,36.1111111 13.09975,42.7706667 14.75,45 C15.051,45.4071111 16.4055,48.0755556 16.5,48.5555556 C16.892,50.5786667 17.2665,52.2231111 18.25,53.8888889 C19.23525,55.5564444 26.489,61 30.5,61 Z" id="Stroke-7" stroke="#3F7BBF" stroke-width="3.5"></path>
                <path d="M64,82.8242847 L64,75.6154539 C63.0026667,72.0056319 60.1564444,70.1637756 56.8871111,68.4066231 L44.4444444,63 C44.4444444,63 38.0373333,68.4066231 32,68.4066231 C25.9626667,68.4066231 21.3333333,63 21.3333333,63 L7.11111111,68.4066231 C3.84533333,70.1637756 0.995555556,72.0056319 0,75.6154539 L0,82.8242847 C8.19733333,91.0585718 55.8044444,91.0585718 64,82.8242847 Z" id="Fill-9" fill="#3F7BBF"></path>
                <path d="M64,82.8242847 L64,75.6154539 C63.0026667,72.0056319 60.1564444,70.1637756 56.8871111,68.4066231 L44.4444444,63 C44.4444444,63 38.0373333,68.4066231 32,68.4066231 C25.9626667,68.4066231 21.3333333,63 21.3333333,63 L7.11111111,68.4066231 C3.84533333,70.1637756 0.995555556,72.0056319 0,75.6154539 L0,82.8242847 C8.19733333,91.0585718 55.8044444,91.0585718 64,82.8242847 Z" id="Stroke-11" stroke="#3F7BBF" stroke-width="3.5"></path>
                <path d="M20,64 L20,55" id="Stroke-13" stroke="#3F7BBF" stroke-width="3.5"></path>
                <path d="M42,64 L42,55" id="Stroke-15" stroke="#3F7BBF" stroke-width="3.5"></path>
                <path d="M129.041001,66.0751377 C133.052001,66.0751377 131.76475,54.7672428 132.75,53.1306117 C133.7335,51.4957255 134.10625,49.881777 134.5,47.8961841 C134.59275,47.4250856 135.949,44.806127 136.25,44.4065657 C137.8985,42.218575 138,35.6825197 138,35.6825197 L136.25,33.9394553 C136.25,33.9394553 135.823,28.4590096 135.578,25.7702586 C134.5735,17.9238516 129.1485,13 120.5,13 C111.84975,13 106.4265,17.9238516 105.42025,25.7702586 C105.17875,28.4590096 104.75,33.9394553 104.75,33.9394553 L103,35.6825197 C103,35.6825197 103.09975,42.218575 104.75,44.4065657 C105.051,44.806127 106.4055,47.4250856 106.5,47.8961841 C106.892,49.881777 107.2665,51.4957255 108.25,53.1306117 C109.23525,54.7672428 112.836156,70 116.847156,70 L129.041001,66.0751377 Z" id="Fill-5" fill="#FFFFFF"></path>
                <path d="M120.5,61 C124.511,61 131.76475,55.5564444 132.75,53.8888889 C133.7335,52.2231111 134.10625,50.5786667 134.5,48.5555556 C134.59275,48.0755556 135.949,45.4071111 136.25,45 C137.8985,42.7706667 138,36.1111111 138,36.1111111 L136.25,34.3351111 C136.25,34.3351111 135.823,28.7511111 135.578,26.0115556 C134.5735,18.0168889 129.1485,13 120.5,13 C111.84975,13 106.4265,18.0168889 105.42025,26.0115556 C105.17875,28.7511111 104.75,34.3351111 104.75,34.3351111 L103,36.1111111 C103,36.1111111 103.09975,42.7706667 104.75,45 C105.051,45.4071111 106.4055,48.0755556 106.5,48.5555556 C106.892,50.5786667 107.2665,52.2231111 108.25,53.8888889 C109.23525,55.5564444 116.489,61 120.5,61 Z" id="Stroke-7" stroke="#3F7BBF" stroke-width="3.5"></path>
                <path d="M154,82.8242847 L154,75.6154539 C153.002667,72.0056319 150.156444,70.1637756 146.887111,68.4066231 L134.444444,63 C134.444444,63 128.037333,68.4066231 122,68.4066231 C115.962667,68.4066231 111.333333,63 111.333333,63 L97.1111111,68.4066231 C93.8453333,70.1637756 90.9955556,72.0056319 90,75.6154539 L90,82.8242847 C98.1973333,91.0585718 145.804444,91.0585718 154,82.8242847 Z" id="Fill-9" fill="#3F7BBF"></path>
                <path d="M154,82.8242847 L154,75.6154539 C153.002667,72.0056319 150.156444,70.1637756 146.887111,68.4066231 L134.444444,63 C134.444444,63 128.037333,68.4066231 122,68.4066231 C115.962667,68.4066231 111.333333,63 111.333333,63 L97.1111111,68.4066231 C93.8453333,70.1637756 90.9955556,72.0056319 90,75.6154539 L90,82.8242847 C98.1973333,91.0585718 145.804444,91.0585718 154,82.8242847 Z" id="Stroke-11" stroke="#3F7BBF" stroke-width="3.5"></path>
                <path d="M110,64 L110,55" id="Stroke-13" stroke="#3F7BBF" stroke-width="3.5"></path>
                <path d="M132,64 L132,55" id="Stroke-15" stroke="#3F7BBF" stroke-width="3.5"></path>
                <path d="M85.2357971,68 C90.2781971,68 91.1614,51.6760939 92.4,49.6511889 C93.6364,47.6284427 94.105,45.6316014 94.6,43.1749469 C94.7166,42.5920851 96.4216,39.3518054 96.8,38.8574522 C98.8724,36.150383 99,28.0637155 99,28.0637155 L96.8,25.9071269 C96.8,25.9071269 96.2632,19.1265015 95.9552,15.7998718 C94.6924,6.09198501 87.8724,0 77,0 C66.1254,0 59.3076,6.09198501 58.0426,15.7998718 C57.739,19.1265015 57.2,25.9071269 57.2,25.9071269 L55,28.0637155 C55,28.0637155 55.1254,36.150383 57.2,38.8574522 C57.5784,39.3518054 59.2812,42.5920851 59.4,43.1749469 C59.8928,45.6316014 60.3636,47.6284427 61.6,49.6511889 C62.8386,51.6760939 63.3372936,67.6131542 68.3796936,67.6131542 L85.2357971,68 Z" id="Fill-5" fill="#FFFFFF"></path>
                <path d="M77,59 C82.0424,59 91.1614,52.308963 92.4,50.2592593 C93.6364,48.2117407 94.105,46.1904444 94.6,43.7037037 C94.7166,43.1137037 96.4216,39.8337407 96.8,39.3333333 C98.8724,36.5931111 99,28.4074074 99,28.4074074 L96.8,26.2244074 C96.8,26.2244074 96.2632,19.3607407 95.9552,15.9933704 C94.6924,6.16659259 87.8724,0 77,0 C66.1254,0 59.3076,6.16659259 58.0426,15.9933704 C57.739,19.3607407 57.2,26.2244074 57.2,26.2244074 L55,28.4074074 C55,28.4074074 55.1254,36.5931111 57.2,39.3333333 C57.5784,39.8337407 59.2812,43.1137037 59.4,43.7037037 C59.8928,46.1904444 60.3636,48.2117407 61.6,50.2592593 C62.8386,52.308963 71.9576,59 77,59 Z" id="Stroke-7" stroke="#3F7BBF" stroke-width="3.5"></path>
                <path d="M116,86.6366472 L116,78.0415028 C114.768917,73.7374842 111.255611,71.5414248 107.220028,69.4463583 L91.8611111,63 C91.8611111,63 83.9523333,69.4463583 76.5,69.4463583 C69.0476667,69.4463583 63.3333333,63 63.3333333,63 L45.7777778,69.4463583 C41.7465833,71.5414248 38.2288889,73.7374842 37,78.0415028 L37,86.6366472 C47.1185833,96.4544509 105.883611,96.4544509 116,86.6366472 Z" id="Fill-9" fill="#4A90E2"></path>
                <path d="M116,86.6366472 L116,78.0415028 C114.768917,73.7374842 111.255611,71.5414248 107.220028,69.4463583 L91.8611111,63 C91.8611111,63 83.9523333,69.4463583 76.5,69.4463583 C69.0476667,69.4463583 63.3333333,63 63.3333333,63 L45.7777778,69.4463583 C41.7465833,71.5414248 38.2288889,73.7374842 37,78.0415028 L37,86.6366472 C47.1185833,96.4544509 105.883611,96.4544509 116,86.6366472 Z" id="Stroke-11" stroke="#3F7BBF" stroke-width="3.5"></path>
                <path d="M64,63 L64,52" id="Stroke-13" stroke="#3F7BBF" stroke-width="3.5"></path>
                <path d="M90,63 L90,52" id="Stroke-15" stroke="#3F7BBF" stroke-width="3.5"></path>
            </g>
            <g id="Group-131-Copy" filter="url(#filter-3)" transform="translate(10.000000, 88.000000)">
                <g id="Page-1">
                    <mask id="mask-5" fill="white">
                        <use xlink:href="#path-4"></use>
                    </mask>
                    <use id="Mask" fill="#F5F8FC" xlink:href="#path-4"></use>
                    <g mask="url(#mask-5)">
                        <g transform="translate(13.000000, 27.000000)">
                            <path d="M39.8419753,8.25886314e-05 L3.25263017,8.25886314e-05 C1.90532917,8.25886314e-05 0.813340488,1.09025252 0.813340488,2.45874615 L0.813340488,18.9764724 C0.813340488,20.3441402 1.90532917,21.4541314 3.25263017,21.4541314 L6.5050164,21.4731268 L10.7485673,27.0453817 C11.2282943,27.6548858 12.1966923,27.3104912 12.1966923,26.5292028 L12.1966923,21.4731268 L39.8419753,21.4731268 C41.1892763,21.4731268 42.281265,20.3441402 42.281265,18.9764724 L42.281265,2.45874615 C42.281265,1.09025252 41.1892763,8.25886314e-05 39.8419753,8.25886314e-05" id="Fill-3" stroke="none" fill="#FEFEFE" fill-rule="evenodd"></path>
                            <path d="M14.635982,21.453801 L12.1966923,21.453801 L12.1966923,26.5288724 C12.1966923,27.3101609 11.2282943,27.6545555 10.7485673,27.0450514 L6.35215425,21.453801 L3.25263017,21.4727964 C1.90532917,21.4727964 0.813340488,20.3636311 0.813340488,18.9951375 L0.813340488,2.47741118 C0.813340488,1.10891755 1.90532917,-0.000247765894 3.25263017,-0.000247765894 L39.8419753,-0.000247765894 C41.1892763,-0.000247765894 42.281265,1.10891755 42.281265,2.47741118 L42.281265,18.9951375 C42.281265,20.3636311 41.1892763,21.4727964 39.8419753,21.4727964 L27.6455269,21.4727964" id="Stroke-5" stroke="#3F7BBF" stroke-width="2.376" fill="none"></path>
                            <path d="M16.2621751,9.89139262 L18.7014648,9.89139262" id="Stroke-7" stroke="#3F7BBF" stroke-width="1.61902541" fill="none"></path>
                            <path d="M20.3276579,9.89139262 L22.7669476,9.89139262" id="Stroke-9" stroke="#3F7BBF" stroke-width="1.61902541" fill="none"></path>
                            <path d="M24.3931407,9.89139262 L26.8324304,9.89139262" id="Stroke-11" stroke="#3F7BBF" stroke-width="1.61902541" fill="none"></path>
                            <path d="M21.1407545,27.1575371 C23.4109201,27.1575371 25.2062373,25.2703869 25.2062373,22.9430392 L25.2062373,21.5382066 C25.2062373,19.210859 23.4109201,17.3245346 21.1407545,17.3245346 C18.8705889,17.3245346 17.0752717,19.210859 17.0752717,21.5382066 L17.0752717,22.9430392 C17.0752717,25.2703869 18.8705889,27.1575371 21.1407545,27.1575371" id="Fill-13" stroke="none" fill="#E8F5FF" fill-rule="evenodd"></path>
                            <path d="M21.1407545,27.1575371 C23.4109201,27.1575371 25.2062373,25.2703869 25.2062373,22.9430392 L25.2062373,21.5382066 C25.2062373,19.210859 23.4109201,17.3245346 21.1407545,17.3245346 C18.8705889,17.3245346 17.0752717,19.210859 17.0752717,21.5382066 L17.0752717,22.9430392 C17.0752717,25.2703869 18.8705889,27.1575371 21.1407545,27.1575371 Z" id="Stroke-15" stroke="#3F7BBF" stroke-width="2.376" fill="none"></path>
                            <path d="M4.87882329,44.5786178 L3.25263017,44.5786178" id="Stroke-27" stroke="#5197CD" stroke-width="1.61902541" fill="none"></path>
                            <path d="M1.62643705,44.5786178 L0.000243928968,44.5786178" id="Stroke-29" stroke="#5197CD" stroke-width="1.61902541" fill="none"></path>
                            <g id="Group-33" stroke="none" stroke-width="1" fill="none" fill-rule="evenodd" transform="translate(41.467925, 43.771809)">
                                <mask id="mask-7" fill="white">
                                    <use xlink:href="#path-6"></use>
                                </mask>
                                <g id="Clip-32"></g>
                                <path d="M1.62643705,0.80680834 L0.000243928968,0.80680834" id="Stroke-31" stroke="#5197CD" stroke-width="1.61902541" mask="url(#mask-7)"></path>
                            </g>
                        </g>
                    </g>
                </g>
            </g>
            <g id="Group-131-Copy-2" filter="url(#filter-8)" transform="translate(218.000000, 86.000000)">
                <g id="Page-1">
                    <mask id="mask-10" fill="white">
                        <use xlink:href="#path-9"></use>
                    </mask>
                    <use id="Mask" fill="#F5F8FC" xlink:href="#path-9"></use>
                </g>
            </g>
            <g id="Group-131-Copy-3" filter="url(#filter-11)" transform="translate(118.000000, 0.000000)">
                <g id="Page-1">
                    <mask id="mask-13" fill="white">
                        <use xlink:href="#path-12"></use>
                    </mask>
                    <use id="Mask" fill="#F5F8FC" xlink:href="#path-12"></use>
                </g>
            </g>
            <g id="Group-139" transform="translate(236.000000, 111.000000)">
                <polygon id="Fill-15" fill="#E8F4FF" points="2 23.0769231 34 23.0769231 34 0 2 0"></polygon>
                <path d="M1.14261139,3.22155689 L2.28212627,3.22155689 C2.28212627,2.66167665 2.75589197,2.20658683 3.33493893,2.20658683 L32.6681576,2.20658683 C33.244108,2.20658683 33.7178737,2.66167665 33.7178737,3.22155689 L33.7178737,21.7724551 C33.7178737,22.3413174 33.244108,22.7934132 32.6681576,22.7934132 L3.33493893,22.7934132 C2.75589197,22.7934132 2.28212627,22.3383234 2.28212627,21.7724551 L2.28212627,3.22155689 L0,3.22155689 L0,21.7724551 C0,23.5568862 1.49251677,25 3.33493893,25 L32.6681576,25 C34.5043867,25 36,23.5568862 36,21.7724551 L36,3.22155689 C35.9969035,1.44011976 34.5043867,0 32.6681576,0 L3.33493893,0 C1.49251677,0 0.00309650783,1.44011976 0,3.22155689 L1.14261139,3.22155689 Z" id="Fill-17" fill="#3F7BBF"></path>
                <path d="M12.002058,11.6477322 L0,22.171104 L0.280912365,22.8904692 C0.750128623,24.1136935 1.95712571,24.9969647 3.38329618,25 L32.6259647,25 C34.0521351,24.9969647 35.2529583,24.1136935 35.7252615,22.8874339 L36,22.1680687 L23.877551,11.5384615 L22.364946,13.2078744 L33.9039616,23.3275518 L34.6602641,22.4928454 L33.5952667,22.0952216 C33.4440062,22.4867748 33.0612245,22.766022 32.6259647,22.7629867 L3.38329618,22.7629867 C2.93877551,22.766022 2.55908078,22.4867748 2.40782027,22.0952216 L1.34590979,22.4928454 L2.10221231,23.3275518 L13.514663,13.3171451 L12.002058,11.6477322 Z" id="Fill-18" fill="#3F7BBF"></path>
                <path d="M1.34579439,2.59358222 L0.589556718,3.45601887 L18.0015433,19.2307692 L36,2.92601234 L35.7221984,2.18588489 C35.2499357,0.915750916 34.0461288,0 32.6231673,0 L3.38300609,0 C1.96004459,0 0.75315099,0.912614782 0.280888279,2.18588489 L0,2.92601234 L0.589556718,3.45601887 L1.34579439,2.59358222 L2.40761382,3.00127954 C2.56194804,2.59671835 2.94161022,2.31133022 3.38300609,2.31133022 L32.6231673,2.31133022 C33.0614765,2.31133022 33.438052,2.59671835 33.5923862,3.00127954 L34.6572923,2.59358222 L33.9010546,1.73114557 L18.0015433,16.1322696 L2.10203207,1.73114557 L1.34579439,2.59358222 L2.40761382,3.00127954 L1.34579439,2.59358222 Z" id="Fill-19" fill="#3F7BBF"></path>
            </g>
            <g id="Page-1" transform="translate(140.000000, 16.000000)">
                <g id="Group-3" transform="translate(0.000000, 5.192547)" fill="#3F7BBF" stroke="#3F7BBF" stroke-width="0.76">
                    <path d="M28.9708,31.1548901 L2.83746667,31.1548901 C1.26946667,31.1548901 0.000133333333,29.919064 0.000133333333,28.3924553 L0.000133333333,2.94897702 C0.000133333333,1.42366646 1.26946667,0.187840373 2.83746667,0.187840373 L4.70413333,0.187840373 C5.2268,0.187840373 5.6748,0.622716149 5.6748,1.13158571 C5.6748,1.64175342 5.2268,2.07792733 4.70413333,2.07792733 L2.83746667,2.07792733 C2.3148,2.07792733 1.8668,2.51410124 1.8668,3.02167267 L1.8668,28.4664491 C1.8668,28.9740205 2.3148,29.4101944 2.83746667,29.4101944 L28.9708,29.4101944 C29.4934667,29.4101944 29.9414667,28.9740205 29.9414667,28.4664491 L29.9414667,3.02167267 C29.9414667,2.51410124 29.4934667,2.07792733 28.9708,2.07792733 L27.1041333,2.07792733 C26.5814667,2.07792733 26.1334667,1.64175342 26.1334667,1.13158571 C26.1334667,0.622716149 26.5814667,0.187840373 27.1041333,0.187840373 L28.9708,0.187840373 C30.5388,0.187840373 31.8081333,1.42366646 31.8081333,2.94897702 L31.8081333,28.3924553 C31.8081333,29.919064 30.5388,31.1548901 28.9708,31.1548901" id="Fill-1"></path>
                </g>
                <g id="Group-6" transform="translate(6.666667, 0.000000)">
                    <mask id="mask-15" fill="white">
                        <use xlink:href="#path-14"></use>
                    </mask>
                    <g id="Clip-5"></g>
                    <path d="M2.81586667,7.26995466 L15.6585333,7.26995466 C15.5092,6.61569379 15.0612,6.17951988 14.4638667,5.81604161 C13.7172,5.45256335 12.9705333,5.45256335 12.9705333,5.45256335 C12.4478667,5.45256335 12.0745333,5.01638944 12.0745333,4.50751988 C12.0745333,2.97961304 10.8052,1.74508509 9.2372,1.74508509 C7.6692,1.74508509 6.39986667,2.97961304 6.39986667,4.50751988 C6.39986667,5.01638944 5.95186667,5.45256335 5.4292,5.45256335 C5.4292,5.45256335 4.68253333,5.45256335 3.93586667,5.81604161 C3.33853333,6.10682422 2.89053333,6.61569379 2.7412,7.26995466 L2.81586667,7.26995466 Z M16.7038667,9.08604783 L1.77053333,9.08604783 C1.24786667,9.08604783 0.799866667,8.64987391 0.799866667,8.14230248 C0.799866667,6.32361304 1.6212,4.8697 3.1892,4.14404161 C3.71186667,3.92595466 4.23453333,3.78056335 4.60786667,3.7078677 C4.9812,1.59969379 6.92253333,-0.000908695652 9.16253333,-0.000908695652 C11.4772,-0.000908695652 13.3438667,1.59969379 13.7172,3.7078677 C14.0905333,3.78056335 14.6132,3.92595466 15.1358667,4.14404161 C16.6292,4.8697 17.5252,6.25221553 17.5252,8.0683087 L17.5252,8.14230248 C17.5252,8.64987391 17.0772,9.08604783 16.6292,9.08604783 L16.7038667,9.08604783 Z" id="Fill-4" stroke="#3F7BBF" stroke-width="0.76" fill="#3F7BBF" mask="url(#mask-15)"></path>
                </g>
                <path d="M15.9037333,5.4520441 C15.6797333,5.4520441 15.3810667,5.37934845 15.2317333,5.16126149 C15.0824,5.01587019 14.9330667,4.72508758 14.9330667,4.50700062 C14.9330667,4.28891366 15.0077333,3.99813106 15.2317333,3.85403789 C15.3810667,3.70734845 15.6797333,3.56195714 15.9037333,3.56195714 C16.1277333,3.56195714 16.4264,3.63595093 16.5757333,3.85403789 C16.7250667,3.99813106 16.8744,4.28891366 16.8744,4.50700062 C16.8744,4.72508758 16.7997333,5.01587019 16.5757333,5.16126149 C16.4264,5.3066528 16.1277333,5.4520441 15.9037333,5.4520441" id="Fill-7" stroke="#3F7BBF" stroke-width="0.76" fill="#3F7BBF"></path>
                <path d="M13.1413333,25.4438677 C12.9173333,25.4438677 12.6933333,25.3698739 12.4693333,25.151787 L9.632,22.3893522 C9.25866667,22.027172 9.25866667,21.4456068 9.632,21.0821286 C10.0053333,20.7173522 10.6026667,20.7173522 10.976,21.0821286 L13.1413333,23.1903025 L20.9066667,15.6286565 C21.28,15.2664764 21.8773333,15.2664764 22.2506667,15.6286565 C22.624,15.9934329 22.624,16.5749981 22.2506667,16.9371783 L13.8133333,25.151787 C13.664,25.2984764 13.3653333,25.4438677 13.1413333,25.4438677" id="Fill-9" stroke="#3F7BBF" stroke-width="0.76" fill="#3F7BBF"></path>
            </g>
        </g>
    </g>
</svg>